<svg xmlns="http://www.w3.org/2000/svg" xmlns:xlink="http://www.w3.org/1999/xlink" width="1920" zoomAndPan="magnify" viewBox="0 0 1440 809.999993" height="1080" preserveAspectRatio="xMidYMid meet" version="1.0"><defs><clipPath id="0f23b8e83a"><path d="M 161.0625 147 L 1278.5625 147 L 1278.5625 662 L 161.0625 662 Z M 161.0625 147 " clip-rule="nonzero"/></clipPath></defs><g clip-path="url(#0f23b8e83a)"><path fill="#0c2342" d="M 170.160156 658.089844 C 182.738281 618.824219 214.949219 589.375 254.832031 579.554688 C 298.085938 568.820312 343.488281 579.25 384.292969 595.203125 C 406.378906 604.097656 427.855469 614.527344 449.636719 624.652344 C 470.804688 634.46875 491.96875 644.898438 514.671875 651.34375 C 535.53125 657.171875 557.621094 659.011719 578.480469 652.875 C 595.046875 647.96875 609.773438 638.765625 623.578125 628.640625 C 651.496094 607.78125 677.265625 580.476562 711.929688 571.582031 C 747.515625 562.375 784.023438 575.261719 816.847656 588.144531 C 850.285156 601.335938 884.644531 616.984375 921.460938 617.289062 C 961.339844 617.597656 992.632812 594.894531 1022.390625 571.273438 C 1038.035156 558.695312 1053.679688 546.117188 1071.78125 536.609375 C 1089.574219 527.402344 1108.59375 520.960938 1128.226562 517.28125 C 1167.496094 509.917969 1209.214844 514.210938 1246.03125 530.164062 C 1254.925781 534.152344 1263.515625 538.753906 1271.800781 543.664062 C 1273.640625 544.890625 1275.171875 544.582031 1276.707031 543.664062 C 1277.628906 542.742188 1278.546875 541.515625 1278.546875 539.367188 C 1278.546875 497.953125 1278.546875 211.117188 1278.546875 169.394531 C 1278.546875 163.566406 1278.546875 157.738281 1278.546875 151.910156 C 1278.546875 149.453125 1276.402344 147.308594 1273.945312 147.308594 C 1264.128906 147.308594 1254.007812 147.308594 1244.1875 147.308594 C 1217.5 147.308594 1190.503906 147.308594 1163.8125 147.308594 C 1123.933594 147.308594 1084.359375 147.308594 1044.476562 147.308594 C 996.007812 147.308594 947.535156 147.308594 898.757812 147.308594 C 845.683594 147.308594 792.917969 147.308594 739.847656 147.308594 C 686.160156 147.308594 632.167969 147.308594 578.480469 147.308594 C 528.785156 147.308594 478.777344 147.308594 429.082031 147.308594 C 386.746094 147.308594 344.410156 147.308594 302.382812 147.308594 C 272.011719 147.308594 241.640625 147.308594 211.269531 147.308594 C 196.851562 147.308594 182.433594 147 168.320312 147.308594 C 167.707031 147.308594 167.09375 147.308594 166.480469 147.308594 C 164.023438 147.308594 161.878906 149.453125 161.878906 151.910156 C 161.878906 181.050781 161.878906 455.925781 161.878906 485.070312 C 161.878906 531.390625 161.878906 578.023438 161.878906 624.347656 C 161.878906 635.082031 161.878906 645.820312 161.878906 656.558594 C 161.265625 662.386719 168.625 663 170.160156 658.089844 Z M 170.160156 658.089844 " fill-opacity="1" fill-rule="nonzero"/></g></svg>