<svg width="150" height="150" viewBox="0 0 150 150" fill="none" xmlns="http://www.w3.org/2000/svg">
<path d="M74.715 105.72C91.8384 105.72 105.72 91.8386 105.72 74.7152C105.72 57.5918 91.8384 43.7105 74.715 43.7105C57.5916 43.7105 43.7104 57.5918 43.7104 74.7152C43.7104 91.8386 57.5916 105.72 74.715 105.72Z" fill="#F5C54A"/>
<path d="M102.978 74.7152C102.882 86.3895 95.5664 97.2704 84.4734 101.256C78.9433 103.236 72.9379 103.466 67.2723 101.916C61.6066 100.366 56.5551 97.1101 52.8034 92.5904C45.3008 83.512 44.438 70.2363 50.4707 60.1745C56.5035 50.1126 68.664 44.6173 80.2322 46.9829C86.6196 48.3148 92.3589 51.7921 96.4966 56.837C100.634 61.8819 102.921 68.1907 102.978 74.7152C103.007 78.2434 108.491 78.2508 108.462 74.7152C108.402 67.7863 106.236 61.0394 102.253 55.3695C98.2697 49.6996 92.6569 45.3747 86.159 42.9683C72.9674 38.1092 57.4504 42.4126 48.6207 53.33C39.7909 64.2475 38.4601 79.8924 45.7323 92.0237C53.0447 104.232 67.5123 110.531 81.4461 107.786C97.0764 104.696 108.352 90.4954 108.462 74.7152C108.491 71.187 103.007 71.1833 102.978 74.7152Z" fill="black"/>
<path d="M77.4569 31.3478V19.6487C77.4569 16.1208 71.973 16.1134 71.973 19.6487V31.3478C71.973 34.8758 77.4569 34.8831 77.4569 31.3478Z" fill="black"/>
<path d="M55.3985 35.7723L49.5489 25.6489C47.7831 22.5925 43.045 25.3528 44.7962 28.4165L50.6457 38.5398C52.4115 41.5962 57.1497 38.836 55.3985 35.7723Z" fill="black"/>
<path d="M38.5396 50.6642L28.4162 44.8146C25.3525 43.0451 22.5886 47.7833 25.6487 49.5674L35.772 55.4169C38.8357 57.1864 41.5996 52.4483 38.5396 50.6642Z" fill="black"/>
<path d="M31.3478 71.9731H19.6487C16.1207 71.9731 16.1134 77.457 19.6487 77.457H31.3478C34.8758 77.457 34.8831 71.9731 31.3478 71.9731Z" fill="black"/>
<path d="M35.7721 94.031L25.6488 99.8805C22.5924 101.646 25.3527 106.384 28.4164 104.633L38.5397 98.7837C41.5961 97.0179 38.8358 92.2798 35.7721 94.031Z" fill="black"/>
<path d="M50.6643 110.89L44.8147 121.013C43.0453 124.077 47.7834 126.841 49.5675 123.781L55.417 113.657C57.1865 110.594 52.4484 107.83 50.6643 110.89Z" fill="black"/>
<path d="M71.973 118.081V129.78C71.973 133.308 77.4569 133.316 77.4569 129.78V118.081C77.4569 114.553 71.973 114.546 71.973 118.081Z" fill="black"/>
<path d="M94.031 113.657L99.8805 123.78C101.646 126.837 106.384 124.077 104.633 121.013L98.7837 110.89C97.0179 107.833 92.2798 110.593 94.031 113.657Z" fill="black"/>
<path d="M110.889 98.7655L121.013 104.615C124.076 106.385 126.84 101.646 123.78 99.8623L113.657 94.0128C110.593 92.2433 107.829 96.9814 110.889 98.7655Z" fill="black"/>
<path d="M118.081 77.457H129.78C133.308 77.457 133.316 71.9731 129.78 71.9731H118.081C114.553 71.9731 114.546 77.457 118.081 77.457Z" fill="black"/>
<path d="M113.657 55.3988L123.78 49.5493C126.837 47.7835 124.077 43.0454 121.013 44.7966L110.89 50.6461C107.833 52.4119 110.593 57.1501 113.657 55.3988Z" fill="black"/>
<path d="M98.7651 38.5397L104.615 28.4164C106.384 25.3527 101.646 22.5888 99.8619 25.6488L94.0124 35.7721C92.2429 38.8358 96.981 41.5997 98.7651 38.5397Z" fill="black"/>
</svg>
