<svg width="150" height="150" viewBox="0 0 150 150" fill="none" xmlns="http://www.w3.org/2000/svg">
<path d="M70.3801 83.3472C73.7402 79.0309 78.2138 75.7126 83.3194 73.7496C88.425 71.7866 93.9693 71.2532 99.3556 72.2067C100.639 72.4334 101.904 72.7498 103.143 73.1537C102.187 67.0833 99.403 61.4488 95.1622 57.0015C90.9213 52.5542 85.4254 49.5056 79.4073 48.2622C67.2212 45.7943 54.4464 51.4979 48.037 62.1009C45.5357 66.294 44.083 71.0287 43.8023 75.9031C43.5216 80.7775 44.4212 85.6477 46.4246 90.1002C46.5965 89.932 46.7683 89.7638 46.9438 89.5993C50.0377 86.7147 53.7938 84.6355 57.8809 83.5452C61.9679 82.4549 66.2605 82.3869 70.3801 83.3472Z" fill="#F5C54A" stroke="black" stroke-width="0.365621" stroke-miterlimit="10"/>
<path d="M46.4243 90.1003C44.4208 85.6478 43.5212 80.7777 43.8019 75.9033C44.0826 71.0289 45.5353 66.2941 48.0367 62.1011C54.4497 51.5164 67.2244 45.7944 79.3923 48.2587C85.4104 49.5021 90.9063 52.5507 95.1472 56.998C99.388 61.4453 102.172 67.0798 103.128 73.1501C105.151 73.8085 107.093 74.6902 108.92 75.779C108.505 68.8316 106.077 62.1554 101.93 56.5657C97.784 50.976 92.0996 46.7148 85.5713 44.3027C71.791 39.2498 55.627 43.7103 46.3512 55.0629C37.2106 66.2509 35.6531 82.2285 42.6949 94.8424C43.7402 93.1157 44.9926 91.5232 46.4243 90.1003Z" fill="black" stroke="black" stroke-width="0.365621" stroke-miterlimit="10"/>
<path d="M76.3465 31.951V19.6487C76.3465 16.1207 70.8625 16.1134 70.8625 19.6487V31.951C70.8625 35.479 76.3465 35.4863 76.3465 31.951Z" fill="black" stroke="black" stroke-width="0.365621" stroke-miterlimit="10"/>
<path d="M48.4095 39.4498C50.1753 42.5062 54.9135 39.7459 53.1623 36.6823L47.0093 26.0251C45.2434 22.9688 40.5053 25.729 42.2565 28.7927L48.4095 39.4498ZM50.7786 38.0642L44.6256 27.4071L50.7786 38.0642Z" fill="black" stroke="black" stroke-width="0.365621" stroke-miterlimit="10"/>
<path d="M35.4512 52.408L24.7941 46.255C21.7341 44.4855 18.9665 49.2236 22.0266 51.0077L32.6837 57.1607C35.7364 58.9119 38.5113 54.1738 35.4512 52.408ZM23.4122 48.6241L34.0693 54.788L23.4122 48.6241Z" fill="black" stroke="black" stroke-width="0.365621" stroke-miterlimit="10"/>
<path d="M15.6501 80.3451H27.9524C31.4804 80.3451 31.4877 74.8612 27.9524 74.8612H15.6501C12.1184 74.8612 12.1148 80.3451 15.6501 80.3451Z" fill="black" stroke="black" stroke-width="0.365621" stroke-miterlimit="10"/>
<path d="M24.7977 108.947L35.4548 102.794C38.5112 101.029 35.7509 96.2904 32.6872 98.0416L22.0301 104.195C18.9737 105.975 21.7303 110.728 24.7977 108.947ZM34.0692 100.429L23.4121 106.582L34.0692 100.429Z" fill="black" stroke="black" stroke-width="0.365621" stroke-miterlimit="10"/>
<path d="M119.252 80.3451H131.555C135.083 80.3451 135.09 74.8612 131.555 74.8612H119.252C115.724 74.8612 115.717 80.3451 119.252 80.3451Z" fill="black" stroke="black" stroke-width="0.365621" stroke-miterlimit="10"/>
<path d="M114.521 57.1423L125.179 50.9893C128.235 49.2235 125.475 44.4854 122.411 46.2366L111.754 52.3895C108.698 54.1737 111.458 58.9118 114.521 57.1423ZM123.793 48.6239L113.139 54.7879L123.793 48.6239Z" fill="black" stroke="black" stroke-width="0.365621" stroke-miterlimit="10"/>
<path d="M98.796 39.4498L104.949 28.7927C106.718 25.7327 101.98 22.9651 100.196 26.0252L94.0433 36.6823C92.2921 39.746 97.0302 42.5099 98.796 39.4498ZM102.58 27.4108L96.4306 38.0679L102.58 27.4108Z" fill="black" stroke="black" stroke-width="0.365621" stroke-miterlimit="10"/>
<path d="M121.75 91.1204C121.948 91.6359 122.134 92.1588 122.302 92.6889C122.468 93.1707 122.489 93.691 122.361 94.1843C126.539 95.7076 130.048 98.6544 132.27 102.507C134.492 106.36 135.286 110.872 134.513 115.252C133.739 119.632 131.447 123.599 128.039 126.458C124.632 129.316 120.326 130.882 115.878 130.882H64.4536C60.5303 130.882 56.6735 129.868 53.2578 127.937C49.8422 126.007 46.9837 123.226 44.96 119.865C42.9363 116.504 41.8162 112.676 41.7083 108.755C41.6005 104.833 42.5086 100.95 44.3445 97.4822C43.9789 96.9557 43.6315 96.4219 43.2988 95.8735C43.0941 95.5334 42.8966 95.1898 42.7065 94.8461C39.5474 100.115 38.3522 106.331 39.3318 112.396C40.0153 116.416 41.653 120.214 44.1073 123.47C46.5617 126.727 49.7612 129.347 53.4375 131.112C57.7079 133.112 62.1319 133.62 66.7644 133.62H111.9C115.483 133.62 119.03 133.723 122.503 132.589C131.508 129.642 137.804 120.951 137.541 111.431C137.387 106.813 135.776 102.362 132.94 98.714C130.104 95.0663 126.187 92.4085 121.75 91.1204Z" fill="black" stroke="black" stroke-width="0.365621" stroke-miterlimit="10"/>
<path d="M64.4533 85.3729C66.8339 85.369 69.2003 85.7392 71.4659 86.4698C74.8451 81.3871 79.8486 77.6011 85.6585 75.7309C91.4684 73.8607 97.7409 74.0169 103.45 76.1739C103.393 75.1587 103.285 74.1471 103.125 73.1429C101.892 72.7436 100.632 72.4308 99.3555 72.2069C93.9715 71.2562 88.4302 71.7911 83.3275 73.754C78.2247 75.7169 73.7535 79.0335 70.3947 83.3474C71.0053 83.4863 71.6085 83.6472 72.2228 83.8337L69.126 85.0951C69.5355 84.4955 69.962 83.9129 70.4056 83.3474C66.2855 82.3865 61.9922 82.4541 57.9044 83.5445C53.8166 84.6348 50.0599 86.7143 46.9657 89.5995C46.7902 89.764 46.6001 89.9322 46.4465 90.1041C46.8451 90.9863 47.2881 91.8479 47.7737 92.6853C49.8979 90.3803 52.4768 88.5405 55.3476 87.282C58.2183 86.0234 61.3188 85.3734 64.4533 85.3729Z" fill="black" stroke="black" stroke-width="0.365621" stroke-miterlimit="10"/>
<path d="M72.1965 83.8335C71.5934 83.6471 70.9903 83.4863 70.3688 83.3474C69.9253 83.9127 69.4989 84.4952 69.0894 85.0947L72.1965 83.8335Z" fill="black" stroke="black" stroke-width="0.365621" stroke-miterlimit="10"/>
<path d="M108.942 79.0217C113.287 81.9486 116.688 86.0737 118.733 90.8962C119.257 90.6839 119.835 90.6392 120.385 90.7683C120.846 90.867 121.299 90.9876 121.749 91.1339C119.314 84.7217 114.795 79.314 108.917 75.7789C108.953 76.3821 108.979 76.989 108.982 77.6068C108.979 78.0785 108.964 78.5537 108.942 79.0217Z" fill="black" stroke="black" stroke-width="0.365621" stroke-miterlimit="10"/>
<path d="M118.734 90.8976C119.084 91.721 119.393 92.5616 119.658 93.4161C120.577 93.6041 121.48 93.8607 122.36 94.1838C122.488 93.6905 122.468 93.1704 122.301 92.6887C122.133 92.1587 121.936 91.6396 121.749 91.1205C121.3 90.9926 120.846 90.872 120.386 90.755C119.834 90.6306 119.256 90.6804 118.734 90.8976Z" fill="black" stroke="black" stroke-width="0.365621" stroke-miterlimit="10"/>
<path d="M108.981 77.6027C109.003 74.5726 104.96 74.1449 103.809 76.3234C105.524 77.0057 107.164 77.8631 108.703 78.882C108.898 78.4845 108.994 78.0454 108.981 77.6027Z" fill="black" stroke="black" stroke-width="0.365621" stroke-miterlimit="10"/>
<path d="M108.942 79.0193C108.964 78.5486 108.982 78.0742 108.986 77.5998C108.995 78.0372 108.899 78.4703 108.705 78.8624L108.942 79.0193Z" fill="black" stroke="black" stroke-width="0.365621" stroke-miterlimit="10"/>
<path d="M44.3437 97.4818C45.2673 95.7412 46.4126 94.1277 47.751 92.6816C47.2654 91.8441 46.8225 90.9827 46.4239 90.1005C44.9955 91.5273 43.7469 93.1234 42.7059 94.8532C42.8996 95.1968 43.0934 95.5405 43.2981 95.8805C43.6308 96.4216 43.9854 96.9553 44.3437 97.4818Z" fill="black" stroke="black" stroke-width="0.365621" stroke-miterlimit="10"/>
<path d="M103.454 76.1808L103.82 76.3198C104.979 74.1262 109.018 74.5686 108.993 77.5993C108.993 76.9888 108.964 76.3819 108.927 75.7714C107.1 74.6827 105.158 73.8011 103.136 73.1428C103.294 74.1494 103.4 75.1634 103.454 76.1808Z" fill="black" stroke="black" stroke-width="0.365621" stroke-miterlimit="10"/>
<path d="M132.027 110.912C132.393 117.88 128.302 124.542 121.724 127.061C118.755 128.198 115.783 128.14 112.69 128.14H70.4714C68.4678 128.14 66.4495 128.158 64.4569 128.14C61.1154 128.145 57.8258 127.313 54.8886 125.72C51.9513 124.127 49.4599 121.823 47.642 119.019C45.824 116.216 44.7373 113.001 44.4812 109.67C44.2251 106.338 44.8077 102.995 46.1759 99.9466C46.7637 98.6039 47.4995 97.331 48.3696 96.1515C48.6548 95.7675 48.9509 95.3983 49.2617 95.0546C54.5193 88.9524 62.9944 86.7587 70.7054 89.1388C71.9265 89.5045 73.1294 88.8683 73.8022 87.8774C79.1549 80.0056 88.9462 75.7644 98.3536 77.6035C100.09 77.9443 101.784 78.4727 103.406 79.1793C103.725 79.3183 104.039 79.4609 104.346 79.6108C104.653 79.7607 105.055 79.9764 105.403 80.1555C110.892 83.1548 115.025 88.14 116.956 94.0893C117.023 94.5855 117.248 95.0469 117.598 95.4052C117.948 95.7635 118.403 95.9995 118.898 96.0783C126.02 97.5993 131.621 103.519 132.027 110.912Z" fill="white"/>
<path d="M122.36 94.1842C126.539 95.7076 130.047 98.6543 132.27 102.507C134.492 106.36 135.286 110.872 134.512 115.252C133.739 119.632 131.447 123.599 128.039 126.457C124.631 129.316 120.326 130.882 115.878 130.882H64.4533C61.1636 130.883 57.9126 130.172 54.9244 128.796C51.9362 127.42 49.2818 125.413 47.1441 122.913C45.0064 120.412 43.4363 117.478 42.5418 114.312C41.6474 111.147 41.45 107.825 41.9632 104.575C42.4764 101.326 43.688 98.2264 45.5146 95.4904C47.3411 92.7543 49.7391 90.4469 52.5434 88.727C55.3476 87.0071 58.4914 85.9156 61.7582 85.5278C65.0249 85.14 68.3369 85.465 71.4659 86.4806C74.845 81.3979 79.8485 77.6119 85.6584 75.7417C91.4683 73.8715 97.7408 74.0277 103.45 76.1847L103.816 76.3236C105.533 77.0035 107.174 77.8613 108.712 78.883C108.792 78.9342 108.873 78.9853 108.949 79.0402C113.29 81.9633 116.689 86.0836 118.733 90.9009C119.081 91.7199 119.391 92.5609 119.658 93.4201C120.577 93.6063 121.48 93.8617 122.36 94.1842ZM121.724 127.061C128.305 124.542 132.408 117.88 132.027 110.911C131.621 103.519 126.02 97.5991 118.931 96.0635C118.436 95.9847 117.981 95.7486 117.631 95.3904C117.281 95.0321 117.056 94.5707 116.989 94.0745C115.058 88.1252 110.925 83.14 105.436 80.1407C105.07 79.9506 104.737 79.7751 104.379 79.5959C104.021 79.4168 103.758 79.3034 103.439 79.1645C101.817 78.4579 100.123 77.9295 98.3865 77.5887C88.9791 75.7606 79.1878 79.9908 73.8351 87.8626C73.1623 88.8535 71.9595 89.5006 70.7383 89.124C63.0273 86.7438 54.5523 88.9375 49.2946 95.0398C48.9838 95.4054 48.6877 95.771 48.4025 96.1366C47.5324 97.3161 46.7966 98.5891 46.2088 99.9318C44.8407 102.98 44.258 106.323 44.5141 109.655C44.7702 112.986 45.8569 116.201 47.6749 119.005C49.4928 121.808 51.9842 124.112 54.9215 125.705C57.8588 127.298 61.1483 128.13 64.4898 128.125C66.4934 128.143 68.5117 128.125 70.5043 128.125H112.69C115.783 128.139 118.755 128.198 121.724 127.061Z" fill="black"/>
</svg>
